<?xml version="1.0" encoding="UTF-8"?>
<svg version="1.1" xmlns="http://www.w3.org/2000/svg" width="129" height="104">
<path d="M0 0 C-0.33 0.66 -0.66 1.32 -1 2 C-3.97 2 -6.94 2 -10 2 C-9.10539062 2.09796875 -8.21078125 2.1959375 -7.2890625 2.296875 C8.30867183 4.2258059 18.28580037 9.28316663 28.6875 21.10546875 C30.06207195 23.08959791 30.58134825 24.63985078 31 27 C30.154375 26.360625 29.30875 25.72125 28.4375 25.0625 C25.09271435 22.8033727 22.02603008 22.32208241 18 22 C20.38456834 30.13754792 23.90608701 35.27072467 31 40 C38.81954226 44.20048249 46.26734886 44.49980197 55 44 C52.10184646 53.25329741 47.60706031 58.42619984 39 63 C36.04275267 64.19005717 33.07699034 65.17074019 30 66 C34.27152492 69.95897432 37.31251115 71.74875245 43 73 C39.33750608 83.72042492 29.18540966 91.25736777 19.47265625 96.31640625 C12.63854936 99.13045026 5.91811486 99.37590679 -1.375 99.4375 C-2.32665039 99.44773193 -3.27830078 99.45796387 -4.25878906 99.46850586 C-10.34352896 99.39166748 -15.00475011 98.79604087 -19.64453125 94.46484375 C-24.4075258 88.23631242 -24.73449925 83.7938532 -24 76 C-21.84062362 71.52129344 -19.07047061 68.81801812 -15 66 C-12.12589978 65.04196659 -9.95855979 64.7831394 -6.95703125 64.60546875 C-5.96509766 64.53650391 -4.97316406 64.46753906 -3.95117188 64.39648438 C-1.87891988 64.25850618 0.1940372 64.13069479 2.26757812 64.01367188 C9.54406927 63.48284973 15.63244513 62.36755487 21 57 C20.35933594 56.90203125 19.71867187 56.8040625 19.05859375 56.703125 C9.81370264 55.10490239 4.72725914 52.67439183 -0.7421875 44.95703125 C-2 43 -2 43 -3.375 40.25 C-6.25260764 36.26562019 -10.80376429 34.90680812 -15.2421875 33.07421875 C-24.91435894 29.00789062 -30.92877503 23.53766011 -37 15 C-40.93586142 18.31440962 -42.87068003 20.98094802 -43.84375 25.94921875 C-44.21978304 30.88465242 -42.75241245 34.10898525 -39.625 37.8125 C-37.43108156 39.64076536 -35.62496849 40.93056839 -33 42 C-33 42.66 -33 43.32 -33 44 C-41.43687597 43.2875527 -41.43687597 43.2875527 -44.9375 41.5 C-48.93656293 40.84709177 -49.82368528 41.93792578 -53.0625 44.25 C-53.87847656 44.89453125 -54.69445312 45.5390625 -55.53515625 46.203125 C-59.33748462 48.97502841 -61.9017928 50.05680382 -66.625 49.8125 C-71.26760563 48.69483568 -71.26760563 48.69483568 -73 46 C-75.50451736 36.57595071 -71.44020325 26.28476947 -67 18 C-59.32018688 6.51063531 -49.16043883 -1.12796997 -35.73828125 -4.58203125 C-23.51431559 -6.44788621 -11.16247404 -5.58123702 0 0 Z M-11 47 C-8.62923171 48.47204567 -7.00114491 49.99885509 -5 52 C-5 52.66 -5 53.32 -5 54 C-5.56847656 53.855625 -6.13695313 53.71125 -6.72265625 53.5625 C-11.62262205 52.38454495 -15.9645312 51.78572473 -21 52 C-20.625 49.5625 -20.625 49.5625 -20 47 C-16.77186065 45.38593032 -14.45147544 46.19465573 -11 47 Z " fill="#FF0101" transform="translate(74,5)"/>
</svg>
